<svg viewBox="0 0 1356 111" fill="none" xmlns="http://www.w3.org/2000/svg">
<path d="M0 55.4981C0 87.4957 27.2282 110.566 63.3788 110.566C91.6647 110.566 112.086 96.8761 119.801 75.8869L107.706 69.6421C101.211 87.0553 85.9289 97.7701 63.5415 97.7701C35.2556 97.7701 14.6853 80.6505 14.6853 55.4981C14.6853 30.3457 35.2421 13.2261 63.528 13.2261C85.9153 13.2261 101.197 23.9408 107.692 41.354L119.788 35.1093C112.086 14.1201 91.6647 0.429688 63.3788 0.429688C27.2282 0.429688 0 23.5005 0 55.4981Z" fill="#B5FFC2"/>
<path d="M218.476 2.06836V47.4628H156.25V2.06836H141.727V108.936H156.25V59.9656H218.476V108.936H232.849V2.06836H218.476Z" fill="#AEFFBC"/>
<path d="M322.264 63.3815C339.811 60.7128 351.309 50.1448 351.309 33.0252C351.309 12.6364 335.566 2.06836 312.894 2.06836H264.73V108.936H278.235V64.1287H306.386L336.936 108.936H353.588L322.278 63.3815H322.264ZM278.222 51.7727V14.411H312.121C327.553 14.411 337.085 20.9627 337.085 33.0252C337.085 45.0876 327.553 51.7727 312.121 51.7727H278.222Z" fill="#A8FFB6"/>
<path d="M431.434 0.429688C395.148 0.429688 368.367 23.5005 368.367 55.4981C368.367 87.4957 395.135 110.566 431.434 110.566C467.734 110.566 494.501 87.4957 494.501 55.4981C494.501 23.5005 467.734 0.429688 431.434 0.429688ZM431.434 98.7442C402.999 98.7442 383.026 80.6505 383.026 55.4981C383.026 30.3457 402.986 12.2653 431.434 12.2653C459.883 12.2653 479.68 30.359 479.68 55.4981C479.68 80.6371 459.869 98.7442 431.434 98.7442Z" fill="#9EFFAF"/>
<path d="M1236.2 55.4981C1236.2 87.4957 1263.43 110.566 1299.58 110.566C1327.86 110.566 1348.28 96.8761 1356 75.8869L1343.9 69.6421C1337.4 87.0553 1322.13 97.7701 1299.74 97.7701C1271.45 97.7701 1250.88 80.6505 1250.88 55.4981C1250.88 30.3457 1271.45 13.2261 1299.74 13.2261C1322.13 13.2261 1337.41 23.9408 1343.9 41.354L1356 35.1093C1348.28 14.1201 1327.86 0.429688 1299.58 0.429688C1263.43 0.429688 1236.2 23.5005 1236.2 55.4981Z" fill="#63FF7D"/>
<path d="M1211.99 2.06836H1197.47V108.936H1211.99V2.06836Z" fill="#69FF83"/>
<path d="M1152.4 2.06836V88.5472L1072.84 2.06836H1057.41V108.936H1071.32V19.4816L1153.46 108.936H1166.31V2.06836H1152.4Z" fill="#70FF89"/>
<path d="M779.53 82.4385C789.36 99.7049 813.565 110.566 840.332 110.566C869.675 110.566 891.914 98.0637 891.914 76.9277C891.914 55.7916 873.16 51.1748 839.125 47.6121C810.988 44.7833 800.398 42.5549 800.398 31.2397C800.398 21.2722 812.046 12.9325 834.135 12.9325C856.224 12.9325 870.896 20.6717 878.449 32.5741L889.039 24.2344C880.428 10.1037 860.007 0.429688 834.745 0.429688C806.012 0.429688 786.648 13.9733 786.648 32.5741C786.648 53.1096 806.31 57.2861 834.596 60.1149C867.113 63.5442 877.703 65.4656 877.703 78.4221C877.703 90.3245 862.123 98.0637 840.644 98.0637C821.741 98.0637 800.859 91.2185 790.12 73.2048L779.53 82.4385Z" fill="#83FF98"/>
<path d="M609.014 2.06836L573.961 92.8038L539.058 2.06836H516.522V108.936H530.583V16.1324L567.615 108.936H579.995L616.865 16.1324V108.936H630.94V2.06836H609.014Z" fill="#95FFA7"/>
<path d="M709.791 16.6661L733.955 66.8108H685.465L709.791 16.6661ZM702.225 2.06836L650.684 108.936H665.301L679.471 79.3136H739.948L754.322 108.936H768.939L717.33 2.06836H702.211H702.225Z" fill="#8CFF9F"/>
<path d="M972.689 0.429688C936.39 0.429688 909.623 23.5005 909.623 55.4981C909.623 87.4957 936.39 110.566 972.689 110.566C1008.99 110.566 1035.76 87.4957 1035.76 55.4981C1035.76 23.5005 1008.99 0.429688 972.689 0.429688ZM972.689 98.7442C944.254 98.7442 924.281 80.6505 924.281 55.4981C924.281 30.3457 944.241 12.2653 972.689 12.2653C1001.14 12.2653 1020.94 30.359 1020.94 55.4981C1020.94 80.6371 1001.12 98.7442 972.689 98.7442Z" fill="#7AFF90"/>
</svg>
