<svg viewBox="0 0 1000 83" fill="none" xmlns="http://www.w3.org/2000/svg">
<g clip-path="url(#clip0_15039_881)">
<path d="M0 41.27C0 65.25 20.08 82.54 46.74 82.54C67.6 82.54 82.66 72.28 88.35 56.55L79.43 51.87C74.64 64.92 63.37 72.95 46.86 72.95C26 72.95 10.83 60.12 10.83 41.27C10.83 22.42 25.99 9.59 46.85 9.59C63.36 9.59 74.63 17.62 79.42 30.67L88.34 25.99C82.66 10.26 67.6 0 46.74 0C20.08 0 0 17.29 0 41.27Z" fill="#ADADAD"/>
<path d="M161.12 1.22998V35.25H115.23V1.22998H104.52V81.32H115.23V44.62H161.12V81.32H171.72V1.22998H161.12Z" fill="#A6A6A6"/>
<path d="M237.66 47.18C250.6 45.18 259.08 37.26 259.08 24.43C259.08 9.14998 247.47 1.22998 230.75 1.22998H195.23V81.32H205.19V47.74H225.95L248.48 81.32H260.76L237.67 47.18H237.66ZM205.18 38.48V10.48H230.18C241.56 10.48 248.59 15.39 248.59 24.43C248.59 33.47 241.56 38.48 230.18 38.48H205.18Z" fill="#9E9E9E"/>
<path d="M318.17 0C291.41 0 271.66 17.29 271.66 41.27C271.66 65.25 291.4 82.54 318.17 82.54C344.94 82.54 364.68 65.25 364.68 41.27C364.68 17.29 344.94 0 318.17 0ZM318.17 73.68C297.2 73.68 282.47 60.12 282.47 41.27C282.47 22.42 297.19 8.87 318.17 8.87C339.15 8.87 353.75 22.43 353.75 41.27C353.75 60.11 339.14 73.68 318.17 73.68Z" fill="#949494"/>
<path d="M911.66 41.27C911.66 65.25 931.74 82.54 958.4 82.54C979.26 82.54 994.32 72.28 1000.01 56.55L991.09 51.87C986.29 64.92 975.03 72.95 958.52 72.95C937.66 72.95 922.49 60.12 922.49 41.27C922.49 22.42 937.66 9.59 958.52 9.59C975.03 9.59 986.3 17.62 991.09 30.67L1000.01 25.99C994.32 10.26 979.26 0 958.4 0C931.74 0 911.66 17.29 911.66 41.27Z" fill="#525252"/>
<path d="M893.81 1.22998H883.1V81.32H893.81V1.22998Z" fill="#595959"/>
<path d="M849.86 1.22998V66.04L791.19 1.22998H779.81V81.32H790.07V14.28L850.64 81.32H860.12V1.22998H849.86Z" fill="#616161"/>
<path d="M574.88 61.46C582.13 74.4 599.98 82.54 619.72 82.54C641.36 82.54 657.76 73.17 657.76 57.33C657.76 41.49 643.93 38.03 618.83 35.36C598.08 33.24 590.27 31.57 590.27 23.09C590.27 15.62 598.86 9.37 615.15 9.37C631.44 9.37 642.26 15.17 647.83 24.09L655.64 17.84C649.29 7.25 634.23 0 615.6 0C594.41 0 580.13 10.15 580.13 24.09C580.13 39.48 594.63 42.61 615.49 44.73C639.47 47.3 647.28 48.74 647.28 58.45C647.28 67.37 635.79 73.17 619.95 73.17C606.01 73.17 590.61 68.04 582.69 54.54L574.88 61.46Z" fill="#757575"/>
<path d="M449.13 1.22998L423.28 69.23L397.54 1.22998H380.92V81.32H391.29V11.77L418.6 81.32H427.73L454.92 11.77V81.32H465.3V1.22998H449.13Z" fill="#8A8A8A"/>
<path d="M523.45 12.17L541.27 49.75H505.51L523.45 12.17ZM517.86 1.22998L479.85 81.32H490.63L501.08 59.12H545.68L556.28 81.32H567.06L529.01 1.22998H517.86Z" fill="#808080"/>
<path d="M717.33 0C690.56 0 670.82 17.29 670.82 41.27C670.82 65.25 690.56 82.54 717.33 82.54C744.1 82.54 763.84 65.25 763.84 41.27C763.84 17.29 744.1 0 717.33 0ZM717.33 73.68C696.36 73.68 681.63 60.12 681.63 41.27C681.63 22.42 696.35 8.87 717.33 8.87C738.31 8.87 752.91 22.43 752.91 41.27C752.91 60.11 738.3 73.68 717.33 73.68Z" fill="#6B6B6B"/>
</g>
<defs>
<clipPath id="clip0_15039_881">
<rect width="1000" height="82.55" fill="white"/>
</clipPath>
</defs>
</svg>
