<svg width="1357" height="115" viewBox="0 0 1357 115" fill="none" xmlns="http://www.w3.org/2000/svg">
<g clipPath="url(#clip0_13001_2170)">
<path d="M0 57.2809C0 90.564 27.2486 114.562 63.4262 114.562C91.7332 114.562 112.17 100.321 119.891 78.4888L107.787 71.9932C101.286 90.106 85.9931 101.251 63.589 101.251C35.282 101.251 14.6963 83.4438 14.6963 57.2809C14.6963 31.1179 35.2684 13.3105 63.5754 13.3105C85.9795 13.3105 101.273 24.4557 107.773 42.5685L119.877 36.0729C112.17 14.2404 91.7332 0 63.4262 0C27.2486 0 0 23.9977 0 57.2809Z" fill="#FFADE2"/>
<path d="M218.64 1.70703V48.9252H156.367V1.70703H141.834V112.868H156.367V61.9304H218.64V112.868H233.024V1.70703H218.64Z" fill="#FFA6DF"/>
<path d="M322.505 65.4835C340.064 62.7076 351.571 51.715 351.571 33.9076C351.571 12.6996 335.817 1.70703 313.128 1.70703H264.927V112.868H278.443V66.2608H306.614L337.187 112.868H353.851L322.518 65.4835H322.505ZM278.429 53.4083V14.5456H312.354C327.797 14.5456 337.337 21.3605 337.337 33.9076C337.337 46.4547 327.797 53.4083 312.354 53.4083H278.429Z" fill="#FF9EDC"/>
<path d="M431.757 0C395.443 0 368.643 23.9977 368.643 57.2809C368.643 90.564 395.43 114.562 431.757 114.562C468.084 114.562 494.871 90.564 494.871 57.2809C494.871 23.9977 468.084 0 431.757 0ZM431.757 102.264C403.3 102.264 383.312 83.4438 383.312 57.2809C383.312 31.1179 403.287 12.3111 431.757 12.3111C460.227 12.3111 480.039 31.1318 480.039 57.2809C480.039 83.4299 460.213 102.264 431.757 102.264Z" fill="#FF94D8"/>
<path d="M1237.12 57.2809C1237.12 90.564 1264.37 114.562 1300.55 114.562C1328.86 114.562 1349.29 100.321 1357.01 78.4888L1344.91 71.9932C1338.4 90.106 1323.12 101.251 1300.71 101.251C1272.4 101.251 1251.82 83.4438 1251.82 57.2809C1251.82 31.1179 1272.4 13.3105 1300.71 13.3105C1323.12 13.3105 1338.41 24.4557 1344.91 42.5685L1357.01 36.0729C1349.29 14.2404 1328.86 0 1300.55 0C1264.37 0 1237.12 23.9977 1237.12 57.2809Z" fill="#FF52C0"/>
<path d="M1212.9 1.70703H1198.37V112.868H1212.9V1.70703Z" fill="#FF59C3"/>
<path d="M1153.26 1.70703V91.6603L1073.64 1.70703H1058.2V112.868H1072.12V19.8198L1154.32 112.868H1167.18V1.70703H1153.26Z" fill="#FF61C6"/>
<path d="M780.112 85.3036C789.95 103.264 814.173 114.562 840.96 114.562C870.325 114.562 892.58 101.557 892.58 79.5714C892.58 57.5862 873.813 52.7839 839.752 49.078C811.594 46.1356 800.996 43.8177 800.996 32.0479C800.996 21.6798 812.653 13.0051 834.758 13.0051C856.864 13.0051 871.547 21.0553 879.105 33.4358L889.703 24.7611C881.086 10.0627 860.65 0 835.369 0C806.614 0 787.236 14.0877 787.236 33.4358C787.236 54.7964 806.913 59.1407 835.22 62.0832C867.761 65.6502 878.359 67.6489 878.359 81.1259C878.359 93.5064 862.767 101.557 841.272 101.557C822.355 101.557 801.458 94.4364 790.71 75.699L780.112 85.3036Z" fill="#FF75CD"/>
<path d="M609.469 1.70703L574.391 96.0879L539.462 1.70703H516.908V112.868H530.981V16.3361L568.04 112.868H580.43L617.326 16.3361V112.868H631.412V1.70703H609.469Z" fill="#FF8AD5"/>
<path d="M710.322 16.8912L734.503 69.0506H685.977L710.322 16.8912ZM702.75 1.70703L651.17 112.868H665.798L679.979 82.0557H740.501L754.885 112.868H769.514L717.867 1.70703H702.736H702.75Z" fill="#FF80D1"/>
<path d="M973.417 0C937.09 0 910.303 23.9977 910.303 57.2809C910.303 90.564 937.09 114.562 973.417 114.562C1009.74 114.562 1036.53 90.564 1036.53 57.2809C1036.53 23.9977 1009.74 0 973.417 0ZM973.417 102.264C944.961 102.264 924.972 83.4438 924.972 57.2809C924.972 31.1179 944.947 12.3111 973.417 12.3111C1001.89 12.3111 1021.7 31.1318 1021.7 57.2809C1021.7 83.4299 1001.87 102.264 973.417 102.264Z" fill="#FF6BCA"/>
</g>
<defs>
<clipPath id="clip0_13001_2170">
<rect width="1357" height="114.576" fill="white"/>
</clipPath>
</defs>
</svg>
